<svg xmlns="http://www.w3.org/2000/svg" viewBox="0 0 96 96" role="img" aria-labelledby="title desc">
  <title id="title">Vendedor SCZ</title>
  <desc id="desc">Marca gráfica temporal con las letras V y S</desc>
  <rect width="96" height="96" rx="25" fill="#1d211f"/>
  <path d="M18 24h15l15 41 15-41h15L55 76H41L18 24Z" fill="#f3e0b7"/>
  <path d="M61 63c5 0 8-2 8-5 0-4-4-5-10-7-8-3-14-7-14-15 0-9 8-15 20-15 7 0 13 2 18 5l-6 10c-4-2-8-3-12-3-4 0-6 1-6 4s3 4 9 6c9 3 15 8 15 16 0 10-8 17-22 17-6 0-11-1-16-4l5-11c4 1 7 2 11 2Z" fill="#b7791f" opacity=".94"/>
</svg>
