<svg width="900" height="640" viewBox="0 0 900 640" fill="none" xmlns="http://www.w3.org/2000/svg">
  <rect width="900" height="640" fill="#050505"/>
  <rect x="70" y="70" width="760" height="500" rx="38" fill="#111111" stroke="#ffffff" stroke-opacity="0.18" stroke-width="3"/>
  <circle cx="690" cy="155" r="155" fill="#ffffff" opacity="0.06"/>
  <circle cx="375" cy="325" r="84" fill="#dcdcdc"/>
  <circle cx="310" cy="270" r="43" fill="#dcdcdc"/>
  <circle cx="440" cy="270" r="43" fill="#dcdcdc"/>
  <circle cx="348" cy="310" r="11" fill="#050505"/>
  <circle cx="402" cy="310" r="11" fill="#050505"/>
  <ellipse cx="375" cy="342" rx="23" ry="18" fill="#050505" opacity="0.85"/>
  <path d="M357 370C370 382 386 382 399 370" stroke="#050505" stroke-width="7" stroke-linecap="round"/>
  <path d="M280 445C295 365 455 365 470 445C485 520 265 520 280 445Z" fill="#bdbdbd"/>
  <path d="M283 440C230 408 215 475 260 492" stroke="#dcdcdc" stroke-width="35" stroke-linecap="round"/>
  <path d="M467 440C520 408 535 475 490 492" stroke="#dcdcdc" stroke-width="35" stroke-linecap="round"/>
  <rect x="130" y="120" width="210" height="48" rx="24" fill="#ffffff"/>
  <text x="160" y="153" font-family="Arial, Helvetica, sans-serif" font-size="25" font-weight="900" fill="#050505">LINEA 02</text>
  <text x="530" y="255" font-family="Arial, Helvetica, sans-serif" font-size="54" font-weight="900" fill="#ffffff">PELUCHES</text>
  <text x="530" y="315" font-family="Arial, Helvetica, sans-serif" font-size="44" font-weight="900" fill="#ffffff">AMERICANOS</text>
  <text x="532" y="370" font-family="Arial, Helvetica, sans-serif" font-size="28" font-weight="700" fill="#b9b9b9">Usados · tiernos · únicos</text>
</svg>