<svg xmlns="http://www.w3.org/2000/svg">
  <symbol id="menu" viewBox="0 0 24 24"><path d="M4 7h16M4 12h16M4 17h16"/></symbol>
  <symbol id="close" viewBox="0 0 24 24"><path d="m6 6 12 12M18 6 6 18"/></symbol>
  <symbol id="list" viewBox="0 0 24 24"><path d="M8 6h12M8 12h12M8 18h12M4 6h.01M4 12h.01M4 18h.01"/></symbol>
  <symbol id="chat" viewBox="0 0 24 24"><path d="M20 11.5a8.4 8.4 0 0 1-9 8.4 9 9 0 0 1-3.8-1.1L3 20l1.2-4a8.4 8.4 0 1 1 15.8-4.5Z"/><path d="M8 12h.01M12 12h.01M16 12h.01"/></symbol>
  <symbol id="shield" viewBox="0 0 24 24"><path d="M12 22s8-4 8-10V5l-8-3-8 3v7c0 6 8 10 8 10Z"/><path d="m9 12 2 2 4-4"/></symbol>
  <symbol id="check" viewBox="0 0 24 24"><path d="m5 12 4 4L19 6"/></symbol>
  <symbol id="search" viewBox="0 0 24 24"><circle cx="11" cy="11" r="7"/><path d="m20 20-4-4"/></symbol>
  <symbol id="box" viewBox="0 0 24 24"><path d="m21 8-9-5-9 5 9 5 9-5Z"/><path d="m3 8 9 5 9-5v9l-9 5-9-5V8Zm9 5v9"/></symbol>
  <symbol id="arrow" viewBox="0 0 24 24"><path d="M5 12h14m-6-6 6 6-6 6"/></symbol>
  <symbol id="info" viewBox="0 0 24 24"><circle cx="12" cy="12" r="9"/><path d="M12 11v5M12 8h.01"/></symbol>
  <symbol id="phone" viewBox="0 0 24 24"><path d="M22 16.9v3a2 2 0 0 1-2.2 2 19.8 19.8 0 0 1-8.6-3.1 19.5 19.5 0 0 1-6-6A19.8 19.8 0 0 1 2.1 4.2 2 2 0 0 1 4.1 2h3a2 2 0 0 1 2 1.7c.1 1 .4 2 .7 2.8a2 2 0 0 1-.4 2.1L8.1 9.9a16 16 0 0 0 6 6l1.3-1.3a2 2 0 0 1 2.1-.4c.9.3 1.8.6 2.8.7a2 2 0 0 1 1.7 2Z"/></symbol>
  <symbol id="facebook" viewBox="0 0 24 24"><path d="M18 2h-3a5 5 0 0 0-5 5v3H7v4h3v8h4v-8h3l1-4h-4V7a1 1 0 0 1 1-1h3V2Z"/></symbol>
  <symbol id="heart" viewBox="0 0 24 24"><path d="M20.8 4.6a5.5 5.5 0 0 0-7.8 0L12 5.7l-1.1-1.1a5.5 5.5 0 0 0-7.8 7.8l1.1 1.1L12 21l7.8-7.5 1.1-1.1a5.5 5.5 0 0 0-.1-7.8Z"/></symbol>
  <symbol id="spark" viewBox="0 0 24 24"><path d="m12 3 1.7 4.3L18 9l-4.3 1.7L12 15l-1.7-4.3L6 9l4.3-1.7L12 3Zm6 12 .9 2.1L21 18l-2.1.9L18 21l-.9-2.1L15 18l2.1-.9L18 15Z"/></symbol>
  <symbol id="minus" viewBox="0 0 24 24"><path d="M5 12h14"/></symbol>
  <symbol id="plus" viewBox="0 0 24 24"><path d="M12 5v14M5 12h14"/></symbol>
  <symbol id="trash" viewBox="0 0 24 24"><path d="M3 6h18M8 6V4h8v2m3 0-1 15H6L5 6m5 4v7m4-7v7"/></symbol>
</svg>
