<svg width="900" height="900" viewBox="0 0 900 900" fill="none" xmlns="http://www.w3.org/2000/svg"><defs><linearGradient id="bg" x1="0" y1="0" x2="900" y2="900"><stop stop-color="#151515"/><stop offset="1" stop-color="#050505"/></linearGradient><filter id="shadow"><feDropShadow dx="0" dy="28" stdDeviation="24" flood-color="#000" flood-opacity=".55"/></filter></defs><rect width="900" height="900" fill="url(#bg)"/><circle cx="720" cy="140" r="210" fill="#F3B431" opacity=".16"/><circle cx="120" cy="730" r="230" fill="#22C55E" opacity=".10"/><rect x="70" y="70" width="760" height="760" rx="56" stroke="#fff" stroke-opacity=".14" stroke-width="3"/><path d="M450 170c-132 0-232 104-232 254 0 148 64 246 117 310 20 24 58 14 58-18V538c0-35 25-63 57-63s57 28 57 63v178c0 32 38 42 58 18 53-64 117-162 117-310 0-150-100-254-232-254Z" fill="#141414" stroke="#F3B431" stroke-width="15" filter="url(#shadow)"/><path d="M275 430c40-112 102-166 175-166s135 54 175 166" stroke="#fff" stroke-opacity=".82" stroke-width="22" stroke-linecap="round"/><path d="M318 570c24 38 67 72 132 72s108-34 132-72" stroke="#F3B431" stroke-width="16" stroke-linecap="round" opacity=".9"/><text x="90" y="735" fill="#F3B431" font-family="Arial" font-size="38" font-weight="900">PELUCAS & EXTENSIONES</text><text x="90" y="790" fill="#fff" font-family="Arial" font-size="80" font-weight="900">SCZ</text><text x="90" y="842" fill="#C8C8C0" font-family="Arial" font-size="28" font-weight="700">Catálogo visual para venta rápida</text></svg>