<svg width="900" height="640" viewBox="0 0 900 640" fill="none" xmlns="http://www.w3.org/2000/svg"><defs><linearGradient id="bg" x1="0" y1="0" x2="900" y2="640"><stop stop-color="#111"/><stop offset="1" stop-color="#050505"/></linearGradient><filter id="s"><feDropShadow dx="0" dy="22" stdDeviation="22" flood-color="#000" flood-opacity=".55"/></filter></defs><rect width="900" height="640" fill="url(#bg)"/><circle cx="710" cy="120" r="185" fill="#22C55E" opacity=".11"/><rect x="64" y="58" width="772" height="524" rx="42" stroke="#fff" stroke-opacity=".16" stroke-width="3"/><path d="M455 110c-105 0-185 82-185 204 0 106 48 182 92 234 20 24 58 9 58-23V386c0-22 16-39 35-39s35 17 35 39v139c0 32 38 47 58 23 44-52 92-128 92-234 0-122-80-204-185-204Z" fill="#171717" stroke="#F3B431" stroke-width="13" filter="url(#s)"/><path d="M320 326c38-86 84-130 135-130s97 44 135 130" stroke="#fff" stroke-opacity=".82" stroke-width="19" stroke-linecap="round"/><path d="M355 450c25 38 59 58 100 58s75-20 100-58" stroke="#F3B431" stroke-width="15" stroke-linecap="round"/><text x="90" y="120" fill="#F3B431" font-family="Arial" font-size="34" font-weight="900">MEDIDA MEDIA</text><text x="90" y="510" fill="#fff" font-family="Arial" font-size="82" font-weight="900">65 CM</text><text x="90" y="568" fill="#C8C8C0" font-family="Arial" font-size="30" font-weight="700">Precio referencial: 700 Bs.</text></svg>