<svg width="900" height="640" viewBox="0 0 900 640" fill="none" xmlns="http://www.w3.org/2000/svg"><defs><linearGradient id="bg" x1="0" y1="0" x2="900" y2="640"><stop stop-color="#111"/><stop offset="1" stop-color="#050505"/></linearGradient><filter id="s"><feDropShadow dx="0" dy="18" stdDeviation="18" flood-color="#000" flood-opacity=".55"/></filter></defs><rect width="900" height="640" fill="url(#bg)"/><circle cx="720" cy="110" r="170" fill="#F3B431" opacity=".13"/><rect x="64" y="58" width="772" height="524" rx="42" stroke="#fff" stroke-opacity=".16" stroke-width="3"/><path d="M455 135c-88 0-155 70-155 172 0 86 36 148 72 190 18 21 50 8 50-19V382c0-20 15-35 33-35s33 15 33 35v96c0 27 32 40 50 19 36-42 72-104 72-190 0-102-67-172-155-172Z" fill="#171717" stroke="#F3B431" stroke-width="13" filter="url(#s)"/><path d="M342 310c32-68 70-103 113-103s81 35 113 103" stroke="#fff" stroke-opacity=".82" stroke-width="18" stroke-linecap="round"/><text x="90" y="120" fill="#F3B431" font-family="Arial" font-size="34" font-weight="900">MEDIDA CORTA</text><text x="90" y="510" fill="#fff" font-family="Arial" font-size="82" font-weight="900">43 CM</text><text x="90" y="568" fill="#C8C8C0" font-family="Arial" font-size="30" font-weight="700">Precio referencial: 400 Bs.</text></svg>