<svg width="900" height="640" viewBox="0 0 900 640" fill="none" xmlns="http://www.w3.org/2000/svg"><defs><linearGradient id="g" x1="0" y1="0" x2="900" y2="640"><stop stop-color="#111"/><stop offset="1" stop-color="#050505"/></linearGradient><filter id="s"><feDropShadow dx="0" dy="22" stdDeviation="22" flood-color="#000" flood-opacity=".5"/></filter></defs><rect width="900" height="640" fill="url(#g)"/><circle cx="720" cy="115" r="180" fill="#F3B431" opacity=".12"/><rect x="64" y="58" width="772" height="524" rx="42" stroke="#fff" stroke-opacity=".16" stroke-width="3"/><text x="90" y="132" fill="#F3B431" font-family="Arial" font-size="34" font-weight="900">CREATIVO IA</text><path d="M450 125c55 70 58 168 0 250-58-82-55-180 0-250Z" fill="#F4E7D1"/><path d="M345 220C185 205 102 285 92 468c135-95 235-130 335-115" fill="#0F0F0F" stroke="#fff" stroke-opacity=".18" stroke-width="4"/><path d="M555 220c160-15 243 65 253 248-135-95-235-130-335-115" fill="#0F0F0F" stroke="#fff" stroke-opacity=".18" stroke-width="4"/><rect x="356" y="315" width="188" height="165" rx="28" fill="#111" stroke="#F3B431" stroke-opacity=".5"/><circle cx="450" cy="230" r="78" fill="#C58D67" filter="url(#s)"/><path d="M300 470c100 42 205 42 300 0" stroke="#F3B431" stroke-width="10" opacity=".5"/><text x="90" y="508" fill="#fff" font-family="Arial" font-size="74" font-weight="900">ARTE IA</text><text x="90" y="570" fill="#C8C8C0" font-family="Arial" font-size="30" font-weight="700">Producción visual premium</text></svg>