<svg width="900" height="640" viewBox="0 0 900 640" fill="none" xmlns="http://www.w3.org/2000/svg">
  <rect width="900" height="640" fill="#050505"/>
  <rect x="70" y="70" width="760" height="500" rx="38" fill="#111111" stroke="#ffffff" stroke-opacity="0.18" stroke-width="3"/>
  <circle cx="705" cy="150" r="150" fill="#ffffff" opacity="0.06"/>
  <path d="M315 210L255 260L300 340L335 318V500H565V318L600 340L645 260L585 210L525 185C505 235 395 235 375 185L315 210Z" fill="#d9d9d9"/>
  <path d="M375 185C390 232 510 232 525 185L490 170H410L375 185Z" fill="#8d8d8d"/>
  <path d="M335 318V500H565V318" stroke="#050505" stroke-opacity="0.25" stroke-width="10"/>
  <rect x="130" y="120" width="210" height="48" rx="24" fill="#ffffff"/>
  <text x="160" y="153" font-family="Arial, Helvetica, sans-serif" font-size="25" font-weight="900" fill="#050505">LINEA 03</text>
  <text x="130" y="290" font-family="Arial, Helvetica, sans-serif" font-size="60" font-weight="900" fill="#ffffff">ROPA</text>
  <text x="130" y="350" font-family="Arial, Helvetica, sans-serif" font-size="46" font-weight="900" fill="#ffffff">AMERICANA</text>
  <text x="132" y="410" font-family="Arial, Helvetica, sans-serif" font-size="28" font-weight="700" fill="#b9b9b9">Usada · seleccionada · por llegada</text>
</svg>