<svg width="900" height="640" viewBox="0 0 900 640" fill="none" xmlns="http://www.w3.org/2000/svg"><defs><linearGradient id="bg" x1="0" y1="0" x2="900" y2="640"><stop stop-color="#111"/><stop offset="1" stop-color="#050505"/></linearGradient><filter id="s"><feDropShadow dx="0" dy="26" stdDeviation="25" flood-color="#000" flood-opacity=".58"/></filter></defs><rect width="900" height="640" fill="url(#bg)"/><circle cx="720" cy="120" r="200" fill="#F3B431" opacity=".14"/><circle cx="135" cy="520" r="190" fill="#22C55E" opacity=".08"/><rect x="64" y="58" width="772" height="524" rx="42" stroke="#fff" stroke-opacity=".16" stroke-width="3"/><path d="M455 88c-122 0-215 94-215 235 0 132 70 221 123 274 18 18 49 6 49-20V384c0-25 19-45 43-45s43 20 43 45v193c0 26 31 38 49 20 53-53 123-142 123-274 0-141-93-235-215-235Z" fill="#171717" stroke="#F3B431" stroke-width="14" filter="url(#s)"/><path d="M300 330c46-101 99-153 155-153s109 52 155 153" stroke="#fff" stroke-opacity=".82" stroke-width="20" stroke-linecap="round"/><path d="M325 510c31 48 75 74 130 74s99-26 130-74" stroke="#F3B431" stroke-width="16" stroke-linecap="round"/><text x="90" y="120" fill="#F3B431" font-family="Arial" font-size="34" font-weight="900">MEDIDA LARGA</text><text x="90" y="510" fill="#fff" font-family="Arial" font-size="82" font-weight="900">85 CM</text><text x="90" y="568" fill="#C8C8C0" font-family="Arial" font-size="30" font-weight="700">Precio referencial: 390 Bs.</text></svg>