<svg width="900" height="640" viewBox="0 0 900 640" fill="none" xmlns="http://www.w3.org/2000/svg"><defs><linearGradient id="g" x1="0" y1="0" x2="900" y2="640"><stop stop-color="#111"/><stop offset="1" stop-color="#050505"/></linearGradient><filter id="s"><feDropShadow dx="0" dy="22" stdDeviation="22" flood-color="#000" flood-opacity=".5"/></filter></defs><rect width="900" height="640" fill="url(#g)"/><circle cx="720" cy="115" r="180" fill="#F3B431" opacity=".12"/><rect x="64" y="58" width="772" height="524" rx="42" stroke="#fff" stroke-opacity=".16" stroke-width="3"/><text x="90" y="132" fill="#F3B431" font-family="Arial" font-size="34" font-weight="900">MARCA PERSONAL</text><circle cx="580" cy="170" r="90" fill="#F3B431" opacity=".32"/><path d="M520 150c95 5 158 90 115 192-20 48-72 90-139 96-64 5-114-23-140-66-65-106 33-229 164-222Z" fill="#B87942" filter="url(#s)"/><rect x="330" y="126" width="330" height="70" rx="34" fill="#1A1A1A"/><rect x="365" y="400" width="300" height="150" rx="34" fill="#171717"/><path d="M380 410h270" stroke="#F3B431" stroke-width="24" stroke-linecap="round"/><text x="90" y="508" fill="#fff" font-family="Arial" font-size="74" font-weight="900">AVATAR</text><text x="90" y="570" fill="#C8C8C0" font-family="Arial" font-size="30" font-weight="700">Imagen profesional</text></svg>