<svg width="900" height="640" viewBox="0 0 900 640" fill="none" xmlns="http://www.w3.org/2000/svg"><defs><linearGradient id="g" x1="0" y1="0" x2="900" y2="640"><stop stop-color="#111"/><stop offset="1" stop-color="#050505"/></linearGradient><filter id="s"><feDropShadow dx="0" dy="22" stdDeviation="22" flood-color="#000" flood-opacity=".5"/></filter></defs><rect width="900" height="640" fill="url(#g)"/><circle cx="720" cy="115" r="180" fill="#F3B431" opacity=".14"/><circle cx="130" cy="520" r="210" fill="#22C55E" opacity=".10"/><rect x="64" y="58" width="772" height="524" rx="42" stroke="#fff" stroke-opacity=".16" stroke-width="3"/><text x="90" y="132" fill="#F3B431" font-family="Arial" font-size="34" font-weight="900">PACUMUTO / FOOD</text><ellipse cx="560" cy="350" rx="230" ry="82" fill="#fff" opacity=".92"/><path d="M435 342c40-92 195-112 258-22 48 70-19 134-122 128-109-7-166-42-136-106Z" fill="#8B4513" filter="url(#s)"/><path d="M475 320c46-36 132-40 180-5" stroke="#F3B431" stroke-width="18" stroke-linecap="round" opacity=".75"/><rect x="190" y="300" width="60" height="140" rx="18" fill="#F7D478"/><rect x="270" y="300" width="60" height="140" rx="18" fill="#F7D478"/><circle cx="305" cy="205" r="54" fill="#F3B431"/><path d="M595 210l34 18 38-8" stroke="#22C55E" stroke-width="18" stroke-linecap="round"/><text x="90" y="508" fill="#fff" font-family="Arial" font-size="74" font-weight="900">PACUMUTO</text><text x="90" y="570" fill="#C8C8C0" font-family="Arial" font-size="30" font-weight="700">Foto guía para catálogo</text></svg>