<svg width="900" height="620" viewBox="0 0 900 620" fill="none" xmlns="http://www.w3.org/2000/svg">
  <rect width="900" height="620" fill="#060606"/>
  <path d="M0 0H900V620H0V0Z" fill="url(#g)"/>
  <defs>
    <linearGradient id="g" x1="0" y1="0" x2="900" y2="620" gradientUnits="userSpaceOnUse">
      <stop stop-color="#141414"/>
      <stop offset="1" stop-color="#050505"/>
    </linearGradient>
  </defs>
  <circle cx="710" cy="145" r="170" fill="#CCFF00" opacity="0.13"/>
  <rect x="95" y="90" width="710" height="440" rx="38" fill="#111111" stroke="#2D2D2D" stroke-width="3"/>
  <rect x="155" y="155" width="170" height="170" rx="26" fill="#1D1D1D" stroke="#CCFF00" stroke-width="4"/>
  <rect x="365" y="155" width="170" height="170" rx="26" fill="#1D1D1D" stroke="#FFFFFF" stroke-opacity="0.2" stroke-width="4"/>
  <rect x="575" y="155" width="170" height="170" rx="26" fill="#1D1D1D" stroke="#FFFFFF" stroke-opacity="0.2" stroke-width="4"/>
  <path d="M195 245C235 190 285 210 292 265C275 298 220 305 195 245Z" fill="#CCFF00"/>
  <path d="M407 210H492V280H407V210Z" fill="#CCFF00" opacity="0.88"/>
  <path d="M616 260C625 210 696 205 704 260C694 295 630 298 616 260Z" fill="#CCFF00" opacity="0.88"/>
  <text x="155" y="405" font-family="Arial, Helvetica, sans-serif" font-size="65" font-weight="900" fill="#FFFFFF">VENDEDOR SCZ</text>
  <text x="158" y="455" font-family="Arial, Helvetica, sans-serif" font-size="30" font-weight="700" fill="#CCFF00">Productos, regalos y oportunidades</text>
</svg>
